<svg xmlns="http://www.w3.org/2000/svg" viewBox="0 0 496 496">
  <path d="M248 0C111 0 0 111 0 248s111 248 248 248 248-111 248-248S385 0 248 0zm0 472c-119.1 0-216-96.9-216-216S128.9 32 248 32s216 96.9 216 216-96.9 216-216 216z"/>
  <path d="M312 296h-72V176c0-22.1-17.9-40-40-40s-40 17.9-40 40v120h-72c-22.1 0-40 17.9-40 40s17.9 40 40 40h120c0 22.1 17.9 40 40 40s40-17.9 40-40v-72h72c22.1 0 40-17.9 40-40s-17.9-40-40-40z"/>
  <text x="100" y="200" font-size="72" font-family="sans-serif">Bruno Sáenz</text>
</svg>
